<svg width="400" height="158" viewBox="0 0 400 158" fill="none" xmlns="http://www.w3.org/2000/svg">
<path d="M115.382 55.2009H120.124V68.0794C120.124 69.1364 120.269 70.0787 120.558 70.9064C120.847 71.724 121.276 72.4171 121.844 72.9855C122.422 73.5538 123.135 73.9876 123.983 74.2868C124.831 74.5759 125.818 74.7205 126.945 74.7205C128.061 74.7205 129.044 74.5759 129.891 74.2868C130.749 73.9876 131.462 73.5538 132.03 72.9855C132.609 72.4171 133.042 71.724 133.332 70.9064C133.621 70.0787 133.765 69.1364 133.765 68.0794V55.2009H138.507V68.6478C138.507 70.1834 138.248 71.5794 137.729 72.8359C137.21 74.0923 136.458 75.1693 135.47 76.0667C134.483 76.9642 133.272 77.6572 131.836 78.1458C130.41 78.6344 128.779 78.8787 126.945 78.8787C125.11 78.8787 123.474 78.6344 122.039 78.1458C120.613 77.6572 119.406 76.9642 118.419 76.0667C117.432 75.1693 116.679 74.0923 116.16 72.8359C115.642 71.5794 115.382 70.1834 115.382 68.6478V55.2009ZM144.295 55.2009H156.187C157.982 55.2009 159.537 55.3904 160.853 55.7693C162.17 56.1383 163.262 56.6767 164.129 57.3847C164.997 58.0927 165.64 58.9553 166.059 59.9724C166.487 60.9895 166.702 62.1412 166.702 63.4276C166.702 64.2951 166.597 65.1228 166.388 65.9105C166.178 66.6883 165.854 67.4063 165.415 68.0644C164.987 68.7226 164.443 69.3109 163.785 69.8294C163.127 70.338 162.354 70.7618 161.467 71.1008L166.552 78.5796H160.749L156.351 71.9384H156.217L149.037 71.9235V78.5796H144.295V55.2009ZM156.306 67.8251C157.204 67.8251 157.987 67.7204 158.655 67.511C159.333 67.3016 159.896 67.0074 160.345 66.6285C160.804 66.2496 161.143 65.7909 161.362 65.2524C161.591 64.704 161.706 64.0957 161.706 63.4276C161.706 62.1213 161.257 61.1141 160.36 60.4061C159.462 59.6882 158.111 59.3292 156.306 59.3292H149.037V67.8251H156.306ZM172.326 55.2009H184.815C186.341 55.2009 187.667 55.3654 188.794 55.6945C189.931 56.0136 190.873 56.4573 191.621 57.0257C192.369 57.5941 192.922 58.2722 193.281 59.06C193.65 59.8378 193.835 60.6804 193.835 61.5878C193.835 63.0736 193.366 64.3749 192.429 65.4917C193.506 66.1299 194.309 66.9576 194.837 67.9747C195.366 68.9918 195.63 70.1485 195.63 71.4448C195.63 72.5317 195.445 73.514 195.076 74.3915C194.717 75.269 194.164 76.0218 193.416 76.6501C192.678 77.2683 191.741 77.747 190.604 78.086C189.477 78.4151 188.146 78.5796 186.61 78.5796H172.326V55.2009ZM186.64 64.1755C187.049 64.1755 187.448 64.1904 187.837 64.2203C188.505 63.5821 188.839 62.8542 188.839 62.0365C188.839 61.1889 188.505 60.5358 187.837 60.0771C187.179 59.6084 186.211 59.3741 184.935 59.3741H177.067V64.1755H186.64ZM186.73 74.4513C188.006 74.4513 188.974 74.1771 189.632 73.6286C190.3 73.0802 190.634 72.3074 190.634 71.3102C190.634 70.313 190.3 69.5352 189.632 68.9768C188.974 68.4184 188.006 68.1392 186.73 68.1392H177.067V74.4513H186.73ZM208.418 55.2009H213.444L224.752 78.5796H219.771L217.902 74.6457H204.245L202.435 78.5796H197.44L208.418 55.2009ZM216.032 70.7418L210.976 60.122L206.055 70.7418H216.032ZM228.357 55.2009H233.098L247.667 62.8293V55.2009H252.409V78.5796H247.667V67.855L233.098 60.2715V78.5796H228.357V55.2009ZM259.02 55.2009H279.931V59.3591H263.761V65.4768H277.493V69.3807H263.761V78.5796H259.02V55.2009ZM283.132 66.8229C283.132 65.0579 283.456 63.4425 284.104 61.9767C284.752 60.5108 285.659 59.2544 286.826 58.2074C288.003 57.1504 289.409 56.3327 291.044 55.7543C292.689 55.176 294.509 54.8868 296.504 54.8868C298.488 54.8868 300.303 55.176 301.948 55.7543C303.593 56.3327 305 57.1504 306.166 58.2074C307.343 59.2544 308.255 60.5108 308.903 61.9767C309.552 63.4425 309.876 65.0579 309.876 66.8229C309.876 68.5979 309.552 70.2283 308.903 71.7141C308.255 73.1899 307.343 74.4613 306.166 75.5282C305 76.5952 303.593 77.4279 301.948 78.0262C300.303 78.6145 298.488 78.9087 296.504 78.9087C294.509 78.9087 292.689 78.6145 291.044 78.0262C289.409 77.4279 288.003 76.5952 286.826 75.5282C285.659 74.4613 284.752 73.1899 284.104 71.7141C283.456 70.2283 283.132 68.5979 283.132 66.8229ZM287.873 66.8229C287.873 68.0295 288.087 69.1164 288.516 70.0837C288.955 71.0509 289.558 71.8786 290.326 72.5666C291.104 73.2447 292.016 73.7682 293.063 74.1372C294.12 74.5061 295.267 74.6906 296.504 74.6906C297.74 74.6906 298.882 74.5061 299.929 74.1372C300.986 73.7682 301.898 73.2447 302.666 72.5666C303.434 71.8786 304.037 71.0509 304.476 70.0837C304.915 69.1164 305.134 68.0295 305.134 66.8229C305.134 65.6164 304.915 64.5344 304.476 63.5771C304.037 62.6199 303.434 61.8122 302.666 61.154C301.898 60.4859 300.986 59.9774 299.929 59.6284C298.882 59.2793 297.74 59.1048 296.504 59.1048C295.267 59.1048 294.12 59.2793 293.063 59.6284C292.016 59.9774 291.104 60.4859 290.326 61.154C289.558 61.8122 288.955 62.6199 288.516 63.5771C288.087 64.5344 287.873 65.6164 287.873 66.8229ZM315.141 55.2009H319.882V74.4214H333.479V78.5796H315.141V55.2009ZM338.086 55.2009H342.827V67.3016L355.167 55.2009H361.24L349.723 66.3593L361.24 78.5796H354.928L346.312 69.6649L342.827 73.0303V78.5796H338.086V55.2009ZM364.665 71.6243C365.513 72.103 366.37 72.5367 367.238 72.9256C368.115 73.3046 369.023 73.6286 369.96 73.8979C370.898 74.1571 371.88 74.3566 372.907 74.4962C373.944 74.6358 375.046 74.7056 376.212 74.7056C377.618 74.7056 378.815 74.6158 379.802 74.4363C380.79 74.2469 381.592 73.9926 382.21 73.6735C382.839 73.3444 383.292 72.9555 383.572 72.5068C383.861 72.0581 384.005 71.5695 384.005 71.041C384.005 70.1934 383.651 69.5253 382.943 69.0367C382.235 68.5381 381.143 68.2888 379.668 68.2888C379.02 68.2888 378.336 68.3337 377.618 68.4234C376.901 68.5032 376.173 68.5929 375.435 68.6926C374.707 68.7924 373.984 68.8871 373.266 68.9768C372.558 69.0566 371.89 69.0965 371.262 69.0965C370.215 69.0965 369.207 68.9619 368.24 68.6926C367.283 68.4234 366.43 68.0195 365.682 67.4811C364.944 66.9426 364.356 66.2695 363.917 65.4618C363.479 64.6541 363.259 63.7118 363.259 62.6348C363.259 61.9966 363.344 61.3634 363.514 60.7352C363.693 60.107 363.972 59.5087 364.351 58.9403C364.74 58.3619 365.239 57.8285 365.847 57.3398C366.455 56.8413 367.188 56.4125 368.046 56.0535C368.913 55.6945 369.91 55.4153 371.037 55.2159C372.174 55.0065 373.465 54.9018 374.911 54.9018C375.958 54.9018 377.01 54.9616 378.067 55.0813C379.124 55.1909 380.151 55.3505 381.148 55.5599C382.156 55.7693 383.123 56.0236 384.05 56.3227C384.978 56.6119 385.84 56.936 386.638 57.295L384.559 61.1241C383.901 60.8349 383.193 60.5707 382.435 60.3314C381.677 60.0821 380.884 59.8677 380.057 59.6882C379.229 59.5087 378.371 59.3691 377.484 59.2694C376.606 59.1597 375.709 59.1048 374.792 59.1048C373.485 59.1048 372.408 59.1996 371.561 59.389C370.723 59.5785 370.055 59.8228 369.556 60.122C369.058 60.4111 368.709 60.7402 368.509 61.1092C368.32 61.4681 368.225 61.8271 368.225 62.1861C368.225 62.8841 368.539 63.4575 369.167 63.9062C369.796 64.345 370.753 64.5643 372.039 64.5643C372.558 64.5643 373.151 64.5294 373.819 64.4596C374.497 64.3799 375.205 64.2951 375.943 64.2054C376.691 64.1156 377.449 64.0358 378.217 63.966C378.995 63.8863 379.747 63.8464 380.475 63.8464C381.851 63.8464 383.068 64.0009 384.125 64.3101C385.192 64.6192 386.084 65.0629 386.802 65.6413C387.52 66.2097 388.064 66.9027 388.433 67.7204C388.802 68.5281 388.986 69.4355 388.986 70.4427C388.986 71.7889 388.672 72.9904 388.044 74.0474C387.426 75.0945 386.538 75.982 385.381 76.7099C384.235 77.4279 382.849 77.9763 381.223 78.3552C379.598 78.7242 377.788 78.9087 375.794 78.9087C374.477 78.9087 373.191 78.8239 371.935 78.6544C370.678 78.4948 369.472 78.2655 368.315 77.9663C367.168 77.6572 366.071 77.2932 365.024 76.8744C363.987 76.4456 363.025 75.977 362.137 75.4684L364.665 71.6243Z" fill="#6E13EF"/>
<path d="M165.27 103.987V90.5848H167.835L173.541 100.043H172.181L177.791 90.5848H180.337L180.376 103.987H177.466L177.446 95.0458H177.982L173.502 102.57H172.105L167.529 95.0458H168.18V103.987H165.27ZM201.552 104.217C200.493 104.217 199.51 104.044 198.604 103.7C197.71 103.355 196.932 102.87 196.268 102.245C195.617 101.619 195.107 100.885 194.736 100.043C194.379 99.2004 194.2 98.2814 194.2 97.2858C194.2 96.2902 194.379 95.3713 194.736 94.5288C195.107 93.6864 195.624 92.9525 196.287 92.3271C196.951 91.7017 197.73 91.2166 198.623 90.872C199.517 90.5274 200.487 90.3551 201.533 90.3551C202.593 90.3551 203.563 90.5274 204.443 90.872C205.337 91.2166 206.109 91.7017 206.76 92.3271C207.424 92.9525 207.941 93.6864 208.311 94.5288C208.681 95.3585 208.866 96.2775 208.866 97.2858C208.866 98.2814 208.681 99.2068 208.311 100.062C207.941 100.904 207.424 101.638 206.76 102.264C206.109 102.876 205.337 103.355 204.443 103.7C203.563 104.044 202.599 104.217 201.552 104.217ZM201.533 101.574C202.133 101.574 202.682 101.472 203.18 101.268C203.69 101.064 204.137 100.77 204.52 100.387C204.903 100.005 205.196 99.5514 205.401 99.0281C205.618 98.5048 205.726 97.924 205.726 97.2858C205.726 96.6476 205.618 96.0669 205.401 95.5436C205.196 95.0203 204.903 94.5671 204.52 94.1842C204.15 93.8013 203.709 93.5077 203.199 93.3035C202.688 93.0993 202.133 92.9972 201.533 92.9972C200.933 92.9972 200.378 93.0993 199.868 93.3035C199.37 93.5077 198.929 93.8013 198.546 94.1842C198.164 94.5671 197.864 95.0203 197.647 95.5436C197.442 96.0669 197.34 96.6476 197.34 97.2858C197.34 97.9113 197.442 98.492 197.647 99.0281C197.864 99.5514 198.157 100.005 198.527 100.387C198.91 100.77 199.357 101.064 199.868 101.268C200.378 101.472 200.933 101.574 201.533 101.574ZM222.684 103.987V90.5848H229.232C230.917 90.5848 232.181 90.9039 233.023 91.5421C233.878 92.1803 234.306 93.0227 234.306 94.0694C234.306 94.7714 234.134 95.384 233.789 95.9073C233.444 96.4179 232.972 96.8136 232.372 97.0944C231.772 97.3752 231.083 97.5156 230.304 97.5156L230.668 96.7306C231.511 96.7306 232.257 96.871 232.908 97.1518C233.559 97.4198 234.063 97.8219 234.421 98.358C234.791 98.8941 234.976 99.5514 234.976 100.33C234.976 101.479 234.523 102.379 233.617 103.03C232.71 103.668 231.377 103.987 229.615 103.987H222.684ZM225.767 101.651H229.385C230.189 101.651 230.796 101.523 231.204 101.268C231.625 101 231.836 100.579 231.836 100.005C231.836 99.4429 231.625 99.0281 231.204 98.76C230.796 98.4792 230.189 98.3388 229.385 98.3388H225.537V96.0796H228.849C229.602 96.0796 230.177 95.952 230.572 95.6967C230.981 95.4287 231.185 95.0266 231.185 94.4906C231.185 93.9672 230.981 93.5779 230.572 93.3227C230.177 93.0546 229.602 92.9206 228.849 92.9206H225.767V101.651ZM248.812 103.987V90.5848H251.913V103.987H248.812ZM266.581 103.987V90.5848H269.683V101.46H276.403V103.987H266.581ZM289.623 103.987V90.5848H292.725V103.987H289.623ZM310.169 103.987V93.1121H305.88V90.5848H317.559V93.1121H313.271V103.987H310.169ZM333.785 103.987V98.5111L334.493 100.387L328.597 90.5848H331.89L336.408 98.1091H334.513L339.05 90.5848H342.094L336.197 100.387L336.887 98.5111V103.987H333.785Z" fill="#6E13EF"/>
<path d="M71.7487 78.4317V51.3528H30.1175C20.8589 51.3528 13.3533 58.8585 13.3533 68.1171V92.6813H57.4991C65.3689 92.6813 71.7487 86.3016 71.7487 78.4317Z" stroke="#6E13EF" stroke-width="6.70569"/>
<path d="M86.6169 91.9376V64.8587H44.9857C35.7271 64.8587 28.2215 72.3643 28.2215 81.6229V106.187H72.3673C80.2371 106.187 86.6169 99.8074 86.6169 91.9376Z" stroke="#6E13EF" stroke-width="6.70569"/>
</svg>
